{
	"asset":{
		"generator":"Khronos glTF Blender I/O v4.0.44",
		"version":"2.0"
	},
	"extensionsUsed":[
		"KHR_materials_specular",
		"KHR_materials_ior",
		"EXT_texture_webp"
	],
	"extensionsRequired":[
		"EXT_texture_webp"
	],
	"scene":0,
	"scenes":[
		{
			"name":"Scene",
			"nodes":[
				1
			]
		}
	],
	"nodes":[
		{
			"mesh":0,
			"name":"object_1.004"
		},
		{
			"children":[
				0
			],
			"mesh":1,
			"name":"Cube.004",
			"scale":[
				100,
				100,
				100
			],
			"translation":[
				0.9350634217262268,
				0,
				-50.34968948364258
			]
		}
	],
	"materials":[
		{
			"doubleSided":true,
			"extensions":{
				"KHR_materials_specular":{
					"specularFactor":0
				},
				"KHR_materials_ior":{
					"ior":1.4500000476837158
				}
			},
			"name":"textured_0.003",
			"pbrMetallicRoughness":{
				"baseColorTexture":{
					"index":0
				},
				"metallicFactor":0,
				"roughnessFactor":0.9467709064483643
			}
		},
		{
			"doubleSided":true,
			"name":"Material.001",
			"pbrMetallicRoughness":{
				"baseColorFactor":[
					0,
					0,
					1,
					1
				],
				"metallicFactor":0,
				"roughnessFactor":0.5
			}
		}
	],
	"meshes":[
		{
			"name":"object_1.005",
			"primitives":[
				{
					"attributes":{
						"POSITION":0,
						"NORMAL":1,
						"TEXCOORD_0":2
					},
					"indices":3,
					"material":0
				}
			]
		},
		{
			"name":"Cube.006",
			"primitives":[
				{
					"attributes":{
						"POSITION":4,
						"NORMAL":5,
						"TEXCOORD_0":6
					},
					"indices":7,
					"material":1
				}
			]
		}
	],
	"textures":[
		{
			"extensions":{
				"EXT_texture_webp":{
					"source":0
				}
			},
			"sampler":0
		}
	],
	"images":[
		{
			"mimeType":"image/webp",
			"name":"textured_0_uo1Vyan3 copia",
			"uri":"textured_0_uo1Vyan3%20copia.webp"
		}
	],
	"accessors":[
		{
			"bufferView":0,
			"componentType":5126,
			"count":109918,
			"max":[
				0.23419827222824097,
				0.3425692915916443,
				0.164243683218956
			],
			"min":[
				-0.23999646306037903,
				-0.18412017822265625,
				-0.1810227483510971
			],
			"type":"VEC3"
		},
		{
			"bufferView":1,
			"componentType":5126,
			"count":109918,
			"type":"VEC3"
		},
		{
			"bufferView":2,
			"componentType":5126,
			"count":109918,
			"type":"VEC2"
		},
		{
			"bufferView":3,
			"componentType":5125,
			"count":111024,
			"type":"SCALAR"
		},
		{
			"bufferView":4,
			"componentType":5126,
			"count":24,
			"max":[
				0.30000001192092896,
				-0.18299998342990875,
				0.30000001192092896
			],
			"min":[
				-0.30000001192092896,
				-0.22300000488758087,
				-0.30000001192092896
			],
			"type":"VEC3"
		},
		{
			"bufferView":5,
			"componentType":5126,
			"count":24,
			"type":"VEC3"
		},
		{
			"bufferView":6,
			"componentType":5126,
			"count":24,
			"type":"VEC2"
		},
		{
			"bufferView":7,
			"componentType":5123,
			"count":36,
			"type":"SCALAR"
		}
	],
	"bufferViews":[
		{
			"buffer":0,
			"byteLength":1319016,
			"byteOffset":0,
			"target":34962
		},
		{
			"buffer":0,
			"byteLength":1319016,
			"byteOffset":1319016,
			"target":34962
		},
		{
			"buffer":0,
			"byteLength":879344,
			"byteOffset":2638032,
			"target":34962
		},
		{
			"buffer":0,
			"byteLength":444096,
			"byteOffset":3517376,
			"target":34963
		},
		{
			"buffer":0,
			"byteLength":288,
			"byteOffset":3961472,
			"target":34962
		},
		{
			"buffer":0,
			"byteLength":288,
			"byteOffset":3961760,
			"target":34962
		},
		{
			"buffer":0,
			"byteLength":192,
			"byteOffset":3962048,
			"target":34962
		},
		{
			"buffer":0,
			"byteLength":72,
			"byteOffset":3962240,
			"target":34963
		}
	],
	"samplers":[
		{
			"magFilter":9729,
			"minFilter":9987
		}
	],
	"buffers":[
		{
			"byteLength":3962312,
			"uri":"busto%20emilio.bin"
		}
	]
}
